<?xml version="1.0" encoding="UTF-8" standalone="no"?>
<!DOCTYPE svg PUBLIC "-//W3C//DTD SVG 1.1//EN" "http://www.w3.org/Graphics/SVG/1.1/DTD/svg11.dtd">
<svg width="100%" height="100%" viewBox="0 0 40 41" version="1.1" xmlns="http://www.w3.org/2000/svg"
     xml:space="preserve"
     style="fill-rule:evenodd;clip-rule:evenodd;stroke-linejoin:round;">
    <g transform="matrix(1,0,0,1,-90,-44)">
        <g id="contrast_selected" transform="matrix(1,0,0,1,-139.828,44.6328)">
            <rect x="229.828" y="0" width="40" height="40" style="fill:none;"/>
            <g>
                <g transform="matrix(1.06022,0,0,1.06022,228.623,-48.5247)">
                    <path d="M19.977,81.24C10.822,81.227 3.393,73.791 3.393,64.633C3.393,55.475 10.822,48.038 19.977,48.026" style="fill:none;stroke:rgb(112,112,112);stroke-width:3.77px;"/>
                </g>
                <g transform="matrix(1.06022,0,0,1.06022,228.623,-48.5247)">
                    <path d="M19.977,48.026C19.985,48.026 20.936,48.026 20.943,48.026C30.109,48.026 36.607,55.467 36.607,64.633C36.607,73.798 29.166,81.24 20,81.24C19.992,81.24 19.985,81.24 19.977,81.24" style="fill:rgb(112,112,112);stroke:rgb(112,112,112);stroke-width:3.77px;stroke-linecap:round;"/>
                </g>
            </g>
        </g>
    </g>
</svg>
